G04 #@! TF.GenerationSoftware,KiCad,Pcbnew,(2017-12-02 revision 3109343b9)-master*
G04 #@! TF.CreationDate,2018-01-07T22:26:38+01:00*
G04 #@! TF.ProjectId,epaperle,6570617065726C652E6B696361645F70,rev?*
G04 #@! TF.SameCoordinates,Original*
G04 #@! TF.FileFunction,Copper,L2,Bot,Signal*
G04 #@! TF.FilePolarity,Positive*
%FSLAX46Y46*%
G04 Gerber Fmt 4.6, Leading zero omitted, Abs format (unit mm)*
G04 Created by KiCad (PCBNEW (2017-12-02 revision 3109343b9)-master) date Sun Jan  7 22:26:38 2018*
%MOMM*%
%LPD*%
G01*
G04 APERTURE LIST*
%ADD10C,6.400000*%
%ADD11C,1.270000*%
%ADD12C,0.254000*%
G04 APERTURE END LIST*
D10*
X215900000Y-123190000D03*
X161290000Y-83820000D03*
X161290000Y-123190000D03*
X215900000Y-83820000D03*
D11*
X193065400Y-122580400D03*
X180594000Y-113715800D03*
X182118000Y-105689400D03*
X178308000Y-94792801D03*
X197358000Y-106934000D03*
X197358000Y-100076000D03*
X172720000Y-93218000D03*
X199136000Y-90170000D03*
X200914000Y-111506000D03*
X199898000Y-108458000D03*
D12*
X180594000Y-119049800D02*
X184124600Y-122580400D01*
X184124600Y-122580400D02*
X191269349Y-122580400D01*
X180594000Y-113715800D02*
X180594000Y-119049800D01*
X191269349Y-122580400D02*
X193065400Y-122580400D01*
X173354999Y-92583001D02*
X196722999Y-92583001D01*
X172720000Y-93218000D02*
X173354999Y-92583001D01*
X198501001Y-90804999D02*
X199136000Y-90170000D01*
X196722999Y-92583001D02*
X198501001Y-90804999D01*
X181356000Y-97840801D02*
X181356000Y-104927400D01*
X181356000Y-104927400D02*
X181483001Y-105054401D01*
X181483001Y-105054401D02*
X182118000Y-105689400D01*
X178308000Y-94792801D02*
X181356000Y-97840801D01*
X183362600Y-106934000D02*
X182752999Y-106324399D01*
X182752999Y-106324399D02*
X182118000Y-105689400D01*
X197358000Y-106934000D02*
X183362600Y-106934000D01*
X197358000Y-100076000D02*
X197358000Y-106934000D01*
X199898000Y-109982000D02*
X200914000Y-110998000D01*
X200914000Y-110998000D02*
X200914000Y-111506000D01*
X199898000Y-108458000D02*
X199898000Y-109982000D01*
M02*
