G04 #@! TF.GenerationSoftware,KiCad,Pcbnew,(2017-12-02 revision 3109343b9)-master*
G04 #@! TF.CreationDate,2018-01-07T22:26:38+01:00*
G04 #@! TF.ProjectId,epaperle,6570617065726C652E6B696361645F70,rev?*
G04 #@! TF.SameCoordinates,Original*
G04 #@! TF.FileFunction,Legend,Top*
G04 #@! TF.FilePolarity,Positive*
%FSLAX46Y46*%
G04 Gerber Fmt 4.6, Leading zero omitted, Abs format (unit mm)*
G04 Created by KiCad (PCBNEW (2017-12-02 revision 3109343b9)-master) date Sun Jan  7 22:26:38 2018*
%MOMM*%
%LPD*%
G01*
G04 APERTURE LIST*
%ADD10C,0.150000*%
%ADD11C,0.120000*%
%ADD12C,0.381000*%
%ADD13C,0.254000*%
%ADD14C,0.152400*%
G04 APERTURE END LIST*
D10*
X163322000Y-118364000D02*
X160782000Y-115824000D01*
X160782000Y-115824000D02*
X160782000Y-98044000D01*
X160782000Y-98044000D02*
X163322000Y-95504000D01*
X178562000Y-95504000D02*
X181102000Y-98044000D01*
X181102000Y-98044000D02*
X181102000Y-114554000D01*
X181102000Y-114554000D02*
X181102000Y-115824000D01*
X181102000Y-115824000D02*
X178562000Y-118364000D01*
X163322000Y-118364000D02*
X178562000Y-118364000D01*
X178562000Y-95504000D02*
X163322000Y-95504000D01*
D11*
X185363400Y-102853000D02*
X183953400Y-102853000D01*
X183953400Y-105173000D02*
X185983400Y-105173000D01*
X183953400Y-105173000D02*
X183953400Y-104513000D01*
X183953400Y-103513000D02*
X183953400Y-102853000D01*
X197066254Y-120996759D02*
X200966254Y-120996759D01*
X197066254Y-122996759D02*
X200966254Y-122996759D01*
X197066254Y-120996759D02*
X197066254Y-122996759D01*
X201312252Y-118170754D02*
X201312252Y-116170754D01*
X201312252Y-116170754D02*
X197412252Y-116170754D01*
X201312252Y-118170754D02*
X197412252Y-118170754D01*
X201312251Y-115630756D02*
X197412251Y-115630756D01*
X201312251Y-113630756D02*
X197412251Y-113630756D01*
X201312251Y-115630756D02*
X201312251Y-113630756D01*
X184144000Y-107316000D02*
X184144000Y-110616000D01*
X184144000Y-110616000D02*
X188694000Y-110616000D01*
X184144000Y-107316000D02*
X188694000Y-107316000D01*
X198546000Y-109838000D02*
X197136000Y-109838000D01*
X197136000Y-112158000D02*
X199166000Y-112158000D01*
X197136000Y-112158000D02*
X197136000Y-111498000D01*
X197136000Y-110498000D02*
X197136000Y-109838000D01*
D12*
X188779307Y-83691433D02*
X188779307Y-83791433D01*
X188779307Y-83791433D02*
X189279307Y-83391433D01*
X188779307Y-82991433D02*
X188779307Y-83691433D01*
X188179307Y-85491433D02*
X188179307Y-83391433D01*
X188179307Y-83391433D02*
X189279307Y-83391433D01*
X189279307Y-83391433D02*
X188779307Y-82991433D01*
D13*
X183678227Y-80392213D02*
X183678227Y-80290613D01*
X183678227Y-80290613D02*
X189578647Y-80290613D01*
X183678227Y-98492253D02*
X184579927Y-98492253D01*
X183678227Y-98492253D02*
X183678227Y-97090173D01*
X195880387Y-98492253D02*
X195880387Y-97090173D01*
X195880387Y-98492253D02*
X194978687Y-98492253D01*
X211752180Y-113197894D02*
X210687158Y-113197894D01*
X210687158Y-113197894D02*
X210687158Y-111182912D01*
X211752180Y-96352106D02*
X210687158Y-96352106D01*
X210687158Y-96352106D02*
X210687158Y-98367088D01*
X214967820Y-113197894D02*
X216532968Y-113197894D01*
X216532968Y-113197894D02*
X216532968Y-96352106D01*
X216532968Y-96352106D02*
X214967820Y-96352106D01*
X216024968Y-97271050D02*
X216024968Y-98541050D01*
X216024968Y-98541050D02*
X215125808Y-97906050D01*
X215125808Y-97906050D02*
X216024968Y-97271050D01*
D10*
X192956272Y-119126000D02*
G75*
G03X192956272Y-119126000I-2202272J0D01*
G01*
D11*
X193056000Y-106176000D02*
X195056000Y-106176000D01*
X195056000Y-104136000D02*
X193056000Y-104136000D01*
X195056000Y-107946000D02*
X193056000Y-107946000D01*
X193056000Y-109986000D02*
X195056000Y-109986000D01*
X204105000Y-105160001D02*
X206105000Y-105160001D01*
X206105000Y-103120001D02*
X204105000Y-103120001D01*
X186790476Y-114397575D02*
X188790476Y-114397575D01*
X188790476Y-112357575D02*
X186790476Y-112357575D01*
X198062250Y-120603758D02*
X200062250Y-120603758D01*
X200062250Y-118563758D02*
X198062250Y-118563758D01*
X204740000Y-119384000D02*
X206740000Y-119384000D01*
X206740000Y-117344000D02*
X204740000Y-117344000D01*
X204105000Y-98810001D02*
X206105000Y-98810001D01*
X206105000Y-96770001D02*
X204105000Y-96770001D01*
X204105000Y-101985001D02*
X206105000Y-101985001D01*
X206105000Y-99945001D02*
X204105000Y-99945001D01*
X206105000Y-106295001D02*
X204105000Y-106295001D01*
X204105000Y-108335001D02*
X206105000Y-108335001D01*
X206740000Y-110359000D02*
X204740000Y-110359000D01*
X204740000Y-112399000D02*
X206740000Y-112399000D01*
X206740000Y-112645000D02*
X204740000Y-112645000D01*
X204740000Y-114685000D02*
X206740000Y-114685000D01*
X206740000Y-115058000D02*
X204740000Y-115058000D01*
X204740000Y-117098000D02*
X206740000Y-117098000D01*
X204740000Y-122051000D02*
X206740000Y-122051000D01*
X206740000Y-120011000D02*
X204740000Y-120011000D01*
X194505476Y-114447567D02*
X192505476Y-114447567D01*
X192505476Y-112307567D02*
X194505476Y-112307567D01*
D10*
X179227171Y-115492114D02*
X179274790Y-115349257D01*
X179322409Y-115301638D01*
X179417647Y-115254019D01*
X179560504Y-115254019D01*
X179655742Y-115301638D01*
X179703361Y-115349257D01*
X179750980Y-115444495D01*
X179750980Y-115825447D01*
X178750980Y-115825447D01*
X178750980Y-115492114D01*
X178798600Y-115396876D01*
X178846219Y-115349257D01*
X178941457Y-115301638D01*
X179036695Y-115301638D01*
X179131933Y-115349257D01*
X179179552Y-115396876D01*
X179227171Y-115492114D01*
X179227171Y-115825447D01*
X178750980Y-114968304D02*
X178750980Y-114396876D01*
X179750980Y-114682590D02*
X178750980Y-114682590D01*
X179750980Y-113539733D02*
X179750980Y-114111161D01*
X179750980Y-113825447D02*
X178750980Y-113825447D01*
X178893838Y-113920685D01*
X178989076Y-114015923D01*
X179036695Y-114111161D01*
X184638161Y-106510619D02*
X184542923Y-106463000D01*
X184447685Y-106367761D01*
X184304828Y-106224904D01*
X184209590Y-106177285D01*
X184114352Y-106177285D01*
X184161971Y-106415380D02*
X184066733Y-106367761D01*
X183971495Y-106272523D01*
X183923876Y-106082047D01*
X183923876Y-105748714D01*
X183971495Y-105558238D01*
X184066733Y-105463000D01*
X184161971Y-105415380D01*
X184352447Y-105415380D01*
X184447685Y-105463000D01*
X184542923Y-105558238D01*
X184590542Y-105748714D01*
X184590542Y-106082047D01*
X184542923Y-106272523D01*
X184447685Y-106367761D01*
X184352447Y-106415380D01*
X184161971Y-106415380D01*
X184971495Y-105510619D02*
X185019114Y-105463000D01*
X185114352Y-105415380D01*
X185352447Y-105415380D01*
X185447685Y-105463000D01*
X185495304Y-105510619D01*
X185542923Y-105605857D01*
X185542923Y-105701095D01*
X185495304Y-105843952D01*
X184923876Y-106415380D01*
X185542923Y-106415380D01*
X201725304Y-122473980D02*
X201725304Y-121473980D01*
X201963400Y-121473980D01*
X202106257Y-121521600D01*
X202201495Y-121616838D01*
X202249114Y-121712076D01*
X202296733Y-121902552D01*
X202296733Y-122045409D01*
X202249114Y-122235885D01*
X202201495Y-122331123D01*
X202106257Y-122426361D01*
X201963400Y-122473980D01*
X201725304Y-122473980D01*
X203249114Y-122473980D02*
X202677685Y-122473980D01*
X202963400Y-122473980D02*
X202963400Y-121473980D01*
X202868161Y-121616838D01*
X202772923Y-121712076D01*
X202677685Y-121759695D01*
X201725304Y-117673380D02*
X201725304Y-116673380D01*
X201963400Y-116673380D01*
X202106257Y-116721000D01*
X202201495Y-116816238D01*
X202249114Y-116911476D01*
X202296733Y-117101952D01*
X202296733Y-117244809D01*
X202249114Y-117435285D01*
X202201495Y-117530523D01*
X202106257Y-117625761D01*
X201963400Y-117673380D01*
X201725304Y-117673380D01*
X202677685Y-116768619D02*
X202725304Y-116721000D01*
X202820542Y-116673380D01*
X203058638Y-116673380D01*
X203153876Y-116721000D01*
X203201495Y-116768619D01*
X203249114Y-116863857D01*
X203249114Y-116959095D01*
X203201495Y-117101952D01*
X202630066Y-117673380D01*
X203249114Y-117673380D01*
X201725304Y-115107980D02*
X201725304Y-114107980D01*
X201963400Y-114107980D01*
X202106257Y-114155600D01*
X202201495Y-114250838D01*
X202249114Y-114346076D01*
X202296733Y-114536552D01*
X202296733Y-114679409D01*
X202249114Y-114869885D01*
X202201495Y-114965123D01*
X202106257Y-115060361D01*
X201963400Y-115107980D01*
X201725304Y-115107980D01*
X202630066Y-114107980D02*
X203249114Y-114107980D01*
X202915780Y-114488933D01*
X203058638Y-114488933D01*
X203153876Y-114536552D01*
X203201495Y-114584171D01*
X203249114Y-114679409D01*
X203249114Y-114917504D01*
X203201495Y-115012742D01*
X203153876Y-115060361D01*
X203058638Y-115107980D01*
X202772923Y-115107980D01*
X202677685Y-115060361D01*
X202630066Y-115012742D01*
X186777333Y-106732342D02*
X186729714Y-106779961D01*
X186586857Y-106827580D01*
X186491619Y-106827580D01*
X186348761Y-106779961D01*
X186253523Y-106684723D01*
X186205904Y-106589485D01*
X186158285Y-106399009D01*
X186158285Y-106256152D01*
X186205904Y-106065676D01*
X186253523Y-105970438D01*
X186348761Y-105875200D01*
X186491619Y-105827580D01*
X186586857Y-105827580D01*
X186729714Y-105875200D01*
X186777333Y-105922819D01*
X187729714Y-106827580D02*
X187158285Y-106827580D01*
X187444000Y-106827580D02*
X187444000Y-105827580D01*
X187348761Y-105970438D01*
X187253523Y-106065676D01*
X187158285Y-106113295D01*
X197770761Y-109412019D02*
X197675523Y-109364400D01*
X197580285Y-109269161D01*
X197437428Y-109126304D01*
X197342190Y-109078685D01*
X197246952Y-109078685D01*
X197294571Y-109316780D02*
X197199333Y-109269161D01*
X197104095Y-109173923D01*
X197056476Y-108983447D01*
X197056476Y-108650114D01*
X197104095Y-108459638D01*
X197199333Y-108364400D01*
X197294571Y-108316780D01*
X197485047Y-108316780D01*
X197580285Y-108364400D01*
X197675523Y-108459638D01*
X197723142Y-108650114D01*
X197723142Y-108983447D01*
X197675523Y-109173923D01*
X197580285Y-109269161D01*
X197485047Y-109316780D01*
X197294571Y-109316780D01*
X198675523Y-109316780D02*
X198104095Y-109316780D01*
X198389809Y-109316780D02*
X198389809Y-108316780D01*
X198294571Y-108459638D01*
X198199333Y-108554876D01*
X198104095Y-108602495D01*
D14*
X189035449Y-96086147D02*
X189035449Y-95324147D01*
X189833735Y-96013575D02*
X189797449Y-96049861D01*
X189688592Y-96086147D01*
X189616021Y-96086147D01*
X189507164Y-96049861D01*
X189434592Y-95977290D01*
X189398307Y-95904718D01*
X189362021Y-95759575D01*
X189362021Y-95650718D01*
X189398307Y-95505575D01*
X189434592Y-95433004D01*
X189507164Y-95360433D01*
X189616021Y-95324147D01*
X189688592Y-95324147D01*
X189797449Y-95360433D01*
X189833735Y-95396718D01*
X190559449Y-96086147D02*
X190124021Y-96086147D01*
X190341735Y-96086147D02*
X190341735Y-95324147D01*
X190269164Y-95433004D01*
X190196592Y-95505575D01*
X190124021Y-95541861D01*
X186259592Y-87036147D02*
X186259592Y-86274147D01*
X186695021Y-87036147D01*
X186695021Y-86274147D01*
X187166735Y-87036147D02*
X187094164Y-86999861D01*
X187057878Y-86963575D01*
X187021592Y-86891004D01*
X187021592Y-86673290D01*
X187057878Y-86600718D01*
X187094164Y-86564433D01*
X187166735Y-86528147D01*
X187275592Y-86528147D01*
X187348164Y-86564433D01*
X187384449Y-86600718D01*
X187420735Y-86673290D01*
X187420735Y-86891004D01*
X187384449Y-86963575D01*
X187348164Y-86999861D01*
X187275592Y-87036147D01*
X187166735Y-87036147D01*
X188219021Y-86528147D02*
X188509307Y-86528147D01*
X188327878Y-87036147D02*
X188327878Y-86383004D01*
X188364164Y-86310433D01*
X188436735Y-86274147D01*
X188509307Y-86274147D01*
X188763307Y-87036147D02*
X188763307Y-86528147D01*
X188763307Y-86274147D02*
X188727021Y-86310433D01*
X188763307Y-86346718D01*
X188799592Y-86310433D01*
X188763307Y-86274147D01*
X188763307Y-86346718D01*
X189235021Y-87036147D02*
X189162449Y-86999861D01*
X189126164Y-86927290D01*
X189126164Y-86274147D01*
X189634164Y-87036147D02*
X189561592Y-86999861D01*
X189525307Y-86927290D01*
X189525307Y-86274147D01*
X190468735Y-86237861D02*
X189815592Y-87217575D01*
X190722735Y-87036147D02*
X190722735Y-86528147D01*
X190722735Y-86600718D02*
X190759021Y-86564433D01*
X190831592Y-86528147D01*
X190940449Y-86528147D01*
X191013021Y-86564433D01*
X191049307Y-86637004D01*
X191049307Y-87036147D01*
X191049307Y-86637004D02*
X191085592Y-86564433D01*
X191158164Y-86528147D01*
X191267021Y-86528147D01*
X191339592Y-86564433D01*
X191375878Y-86637004D01*
X191375878Y-87036147D01*
X192065307Y-87036147D02*
X192065307Y-86637004D01*
X192029021Y-86564433D01*
X191956449Y-86528147D01*
X191811307Y-86528147D01*
X191738735Y-86564433D01*
X192065307Y-86999861D02*
X191992735Y-87036147D01*
X191811307Y-87036147D01*
X191738735Y-86999861D01*
X191702449Y-86927290D01*
X191702449Y-86854718D01*
X191738735Y-86782147D01*
X191811307Y-86745861D01*
X191992735Y-86745861D01*
X192065307Y-86709575D01*
X192391878Y-86999861D02*
X192464449Y-87036147D01*
X192609592Y-87036147D01*
X192682164Y-86999861D01*
X192718449Y-86927290D01*
X192718449Y-86891004D01*
X192682164Y-86818433D01*
X192609592Y-86782147D01*
X192500735Y-86782147D01*
X192428164Y-86745861D01*
X192391878Y-86673290D01*
X192391878Y-86637004D01*
X192428164Y-86564433D01*
X192500735Y-86528147D01*
X192609592Y-86528147D01*
X192682164Y-86564433D01*
X193045021Y-87036147D02*
X193045021Y-86274147D01*
X193117592Y-86745861D02*
X193335307Y-87036147D01*
X193335307Y-86528147D02*
X193045021Y-86818433D01*
D13*
X212549619Y-105422095D02*
X213372095Y-105422095D01*
X213468857Y-105373714D01*
X213517238Y-105325333D01*
X213565619Y-105228571D01*
X213565619Y-105035047D01*
X213517238Y-104938285D01*
X213468857Y-104889904D01*
X213372095Y-104841523D01*
X212549619Y-104841523D01*
X212646380Y-104406095D02*
X212598000Y-104357714D01*
X212549619Y-104260952D01*
X212549619Y-104019047D01*
X212598000Y-103922285D01*
X212646380Y-103873904D01*
X212743142Y-103825523D01*
X212839904Y-103825523D01*
X212985047Y-103873904D01*
X213565619Y-104454476D01*
X213565619Y-103825523D01*
X214757000Y-107974190D02*
X214708619Y-108070952D01*
X214708619Y-108216095D01*
X214757000Y-108361238D01*
X214853761Y-108458000D01*
X214950523Y-108506380D01*
X215144047Y-108554761D01*
X215289190Y-108554761D01*
X215482714Y-108506380D01*
X215579476Y-108458000D01*
X215676238Y-108361238D01*
X215724619Y-108216095D01*
X215724619Y-108119333D01*
X215676238Y-107974190D01*
X215627857Y-107925809D01*
X215289190Y-107925809D01*
X215289190Y-108119333D01*
X215724619Y-107490380D02*
X214708619Y-107490380D01*
X214708619Y-107248476D01*
X214757000Y-107103333D01*
X214853761Y-107006571D01*
X214950523Y-106958190D01*
X215144047Y-106909809D01*
X215289190Y-106909809D01*
X215482714Y-106958190D01*
X215579476Y-107006571D01*
X215676238Y-107103333D01*
X215724619Y-107248476D01*
X215724619Y-107490380D01*
X215192428Y-106474380D02*
X215192428Y-106135714D01*
X215724619Y-105990571D02*
X215724619Y-106474380D01*
X214708619Y-106474380D01*
X214708619Y-105990571D01*
X214708619Y-105361619D02*
X214708619Y-105264857D01*
X214757000Y-105168095D01*
X214805380Y-105119714D01*
X214902142Y-105071333D01*
X215095666Y-105022952D01*
X215337571Y-105022952D01*
X215531095Y-105071333D01*
X215627857Y-105119714D01*
X215676238Y-105168095D01*
X215724619Y-105264857D01*
X215724619Y-105361619D01*
X215676238Y-105458380D01*
X215627857Y-105506761D01*
X215531095Y-105555142D01*
X215337571Y-105603523D01*
X215095666Y-105603523D01*
X214902142Y-105555142D01*
X214805380Y-105506761D01*
X214757000Y-105458380D01*
X214708619Y-105361619D01*
X214805380Y-104635904D02*
X214757000Y-104587523D01*
X214708619Y-104490761D01*
X214708619Y-104248857D01*
X214757000Y-104152095D01*
X214805380Y-104103714D01*
X214902142Y-104055333D01*
X214998904Y-104055333D01*
X215144047Y-104103714D01*
X215724619Y-104684285D01*
X215724619Y-104055333D01*
X215724619Y-103087714D02*
X215724619Y-103668285D01*
X215724619Y-103378000D02*
X214708619Y-103378000D01*
X214853761Y-103474761D01*
X214950523Y-103571523D01*
X214998904Y-103668285D01*
X215434333Y-102700666D02*
X215434333Y-102216857D01*
X215724619Y-102797428D02*
X214708619Y-102458761D01*
X215724619Y-102120095D01*
X215724619Y-101249238D02*
X215724619Y-101829809D01*
X215724619Y-101539523D02*
X214708619Y-101539523D01*
X214853761Y-101636285D01*
X214950523Y-101733047D01*
X214998904Y-101829809D01*
D10*
X190687333Y-122678380D02*
X190211142Y-122678380D01*
X190211142Y-121678380D01*
X191544476Y-122678380D02*
X190973047Y-122678380D01*
X191258761Y-122678380D02*
X191258761Y-121678380D01*
X191163523Y-121821238D01*
X191068285Y-121916476D01*
X190973047Y-121964095D01*
X193889333Y-103531942D02*
X193841714Y-103579561D01*
X193698857Y-103627180D01*
X193603619Y-103627180D01*
X193460761Y-103579561D01*
X193365523Y-103484323D01*
X193317904Y-103389085D01*
X193270285Y-103198609D01*
X193270285Y-103055752D01*
X193317904Y-102865276D01*
X193365523Y-102770038D01*
X193460761Y-102674800D01*
X193603619Y-102627180D01*
X193698857Y-102627180D01*
X193841714Y-102674800D01*
X193889333Y-102722419D01*
X194270285Y-102722419D02*
X194317904Y-102674800D01*
X194413142Y-102627180D01*
X194651238Y-102627180D01*
X194746476Y-102674800D01*
X194794095Y-102722419D01*
X194841714Y-102817657D01*
X194841714Y-102912895D01*
X194794095Y-103055752D01*
X194222666Y-103627180D01*
X194841714Y-103627180D01*
X193889333Y-107468942D02*
X193841714Y-107516561D01*
X193698857Y-107564180D01*
X193603619Y-107564180D01*
X193460761Y-107516561D01*
X193365523Y-107421323D01*
X193317904Y-107326085D01*
X193270285Y-107135609D01*
X193270285Y-106992752D01*
X193317904Y-106802276D01*
X193365523Y-106707038D01*
X193460761Y-106611800D01*
X193603619Y-106564180D01*
X193698857Y-106564180D01*
X193841714Y-106611800D01*
X193889333Y-106659419D01*
X194222666Y-106564180D02*
X194841714Y-106564180D01*
X194508380Y-106945133D01*
X194651238Y-106945133D01*
X194746476Y-106992752D01*
X194794095Y-107040371D01*
X194841714Y-107135609D01*
X194841714Y-107373704D01*
X194794095Y-107468942D01*
X194746476Y-107516561D01*
X194651238Y-107564180D01*
X194365523Y-107564180D01*
X194270285Y-107516561D01*
X194222666Y-107468942D01*
X201807723Y-104497142D02*
X201760104Y-104544761D01*
X201617247Y-104592380D01*
X201522009Y-104592380D01*
X201379151Y-104544761D01*
X201283913Y-104449523D01*
X201236294Y-104354285D01*
X201188675Y-104163809D01*
X201188675Y-104020952D01*
X201236294Y-103830476D01*
X201283913Y-103735238D01*
X201379151Y-103640000D01*
X201522009Y-103592380D01*
X201617247Y-103592380D01*
X201760104Y-103640000D01*
X201807723Y-103687619D01*
X202664866Y-103925714D02*
X202664866Y-104592380D01*
X202426770Y-103544761D02*
X202188675Y-104259047D01*
X202807723Y-104259047D01*
X187623809Y-115927142D02*
X187576190Y-115974761D01*
X187433333Y-116022380D01*
X187338095Y-116022380D01*
X187195237Y-115974761D01*
X187099999Y-115879523D01*
X187052380Y-115784285D01*
X187004761Y-115593809D01*
X187004761Y-115450952D01*
X187052380Y-115260476D01*
X187099999Y-115165238D01*
X187195237Y-115070000D01*
X187338095Y-115022380D01*
X187433333Y-115022380D01*
X187576190Y-115070000D01*
X187623809Y-115117619D01*
X188528571Y-115022380D02*
X188052380Y-115022380D01*
X188004761Y-115498571D01*
X188052380Y-115450952D01*
X188147618Y-115403333D01*
X188385714Y-115403333D01*
X188480952Y-115450952D01*
X188528571Y-115498571D01*
X188576190Y-115593809D01*
X188576190Y-115831904D01*
X188528571Y-115927142D01*
X188480952Y-115974761D01*
X188385714Y-116022380D01*
X188147618Y-116022380D01*
X188052380Y-115974761D01*
X188004761Y-115927142D01*
X202296733Y-119965742D02*
X202249114Y-120013361D01*
X202106257Y-120060980D01*
X202011019Y-120060980D01*
X201868161Y-120013361D01*
X201772923Y-119918123D01*
X201725304Y-119822885D01*
X201677685Y-119632409D01*
X201677685Y-119489552D01*
X201725304Y-119299076D01*
X201772923Y-119203838D01*
X201868161Y-119108600D01*
X202011019Y-119060980D01*
X202106257Y-119060980D01*
X202249114Y-119108600D01*
X202296733Y-119156219D01*
X203153876Y-119060980D02*
X202963400Y-119060980D01*
X202868161Y-119108600D01*
X202820542Y-119156219D01*
X202725304Y-119299076D01*
X202677685Y-119489552D01*
X202677685Y-119870504D01*
X202725304Y-119965742D01*
X202772923Y-120013361D01*
X202868161Y-120060980D01*
X203058638Y-120060980D01*
X203153876Y-120013361D01*
X203201495Y-119965742D01*
X203249114Y-119870504D01*
X203249114Y-119632409D01*
X203201495Y-119537171D01*
X203153876Y-119489552D01*
X203058638Y-119441933D01*
X202868161Y-119441933D01*
X202772923Y-119489552D01*
X202725304Y-119537171D01*
X202677685Y-119632409D01*
X208678542Y-118721142D02*
X208630923Y-118768761D01*
X208488066Y-118816380D01*
X208392828Y-118816380D01*
X208249970Y-118768761D01*
X208154732Y-118673523D01*
X208107113Y-118578285D01*
X208059494Y-118387809D01*
X208059494Y-118244952D01*
X208107113Y-118054476D01*
X208154732Y-117959238D01*
X208249970Y-117864000D01*
X208392828Y-117816380D01*
X208488066Y-117816380D01*
X208630923Y-117864000D01*
X208678542Y-117911619D01*
X209011875Y-117816380D02*
X209678542Y-117816380D01*
X209249970Y-118816380D01*
X201807723Y-98197942D02*
X201760104Y-98245561D01*
X201617247Y-98293180D01*
X201522009Y-98293180D01*
X201379151Y-98245561D01*
X201283913Y-98150323D01*
X201236294Y-98055085D01*
X201188675Y-97864609D01*
X201188675Y-97721752D01*
X201236294Y-97531276D01*
X201283913Y-97436038D01*
X201379151Y-97340800D01*
X201522009Y-97293180D01*
X201617247Y-97293180D01*
X201760104Y-97340800D01*
X201807723Y-97388419D01*
X202379151Y-97721752D02*
X202283913Y-97674133D01*
X202236294Y-97626514D01*
X202188675Y-97531276D01*
X202188675Y-97483657D01*
X202236294Y-97388419D01*
X202283913Y-97340800D01*
X202379151Y-97293180D01*
X202569628Y-97293180D01*
X202664866Y-97340800D01*
X202712485Y-97388419D01*
X202760104Y-97483657D01*
X202760104Y-97531276D01*
X202712485Y-97626514D01*
X202664866Y-97674133D01*
X202569628Y-97721752D01*
X202379151Y-97721752D01*
X202283913Y-97769371D01*
X202236294Y-97816990D01*
X202188675Y-97912228D01*
X202188675Y-98102704D01*
X202236294Y-98197942D01*
X202283913Y-98245561D01*
X202379151Y-98293180D01*
X202569628Y-98293180D01*
X202664866Y-98245561D01*
X202712485Y-98197942D01*
X202760104Y-98102704D01*
X202760104Y-97912228D01*
X202712485Y-97816990D01*
X202664866Y-97769371D01*
X202569628Y-97721752D01*
X201807723Y-101322142D02*
X201760104Y-101369761D01*
X201617247Y-101417380D01*
X201522009Y-101417380D01*
X201379151Y-101369761D01*
X201283913Y-101274523D01*
X201236294Y-101179285D01*
X201188675Y-100988809D01*
X201188675Y-100845952D01*
X201236294Y-100655476D01*
X201283913Y-100560238D01*
X201379151Y-100465000D01*
X201522009Y-100417380D01*
X201617247Y-100417380D01*
X201760104Y-100465000D01*
X201807723Y-100512619D01*
X202283913Y-101417380D02*
X202474390Y-101417380D01*
X202569628Y-101369761D01*
X202617247Y-101322142D01*
X202712485Y-101179285D01*
X202760104Y-100988809D01*
X202760104Y-100607857D01*
X202712485Y-100512619D01*
X202664866Y-100465000D01*
X202569628Y-100417380D01*
X202379151Y-100417380D01*
X202283913Y-100465000D01*
X202236294Y-100512619D01*
X202188675Y-100607857D01*
X202188675Y-100845952D01*
X202236294Y-100941190D01*
X202283913Y-100988809D01*
X202379151Y-101036428D01*
X202569628Y-101036428D01*
X202664866Y-100988809D01*
X202712485Y-100941190D01*
X202760104Y-100845952D01*
X200855342Y-107672142D02*
X200807723Y-107719761D01*
X200664866Y-107767380D01*
X200569628Y-107767380D01*
X200426771Y-107719761D01*
X200331533Y-107624523D01*
X200283914Y-107529285D01*
X200236295Y-107338809D01*
X200236295Y-107195952D01*
X200283914Y-107005476D01*
X200331533Y-106910238D01*
X200426771Y-106815000D01*
X200569628Y-106767380D01*
X200664866Y-106767380D01*
X200807723Y-106815000D01*
X200855342Y-106862619D01*
X201807723Y-107767380D02*
X201236295Y-107767380D01*
X201522009Y-107767380D02*
X201522009Y-106767380D01*
X201426771Y-106910238D01*
X201331533Y-107005476D01*
X201236295Y-107053095D01*
X202426771Y-106767380D02*
X202522009Y-106767380D01*
X202617247Y-106815000D01*
X202664866Y-106862619D01*
X202712485Y-106957857D01*
X202760104Y-107148333D01*
X202760104Y-107386428D01*
X202712485Y-107576904D01*
X202664866Y-107672142D01*
X202617247Y-107719761D01*
X202522009Y-107767380D01*
X202426771Y-107767380D01*
X202331533Y-107719761D01*
X202283914Y-107672142D01*
X202236295Y-107576904D01*
X202188676Y-107386428D01*
X202188676Y-107148333D01*
X202236295Y-106957857D01*
X202283914Y-106862619D01*
X202331533Y-106815000D01*
X202426771Y-106767380D01*
X205097142Y-109754942D02*
X205049523Y-109802561D01*
X204906666Y-109850180D01*
X204811428Y-109850180D01*
X204668571Y-109802561D01*
X204573333Y-109707323D01*
X204525714Y-109612085D01*
X204478095Y-109421609D01*
X204478095Y-109278752D01*
X204525714Y-109088276D01*
X204573333Y-108993038D01*
X204668571Y-108897800D01*
X204811428Y-108850180D01*
X204906666Y-108850180D01*
X205049523Y-108897800D01*
X205097142Y-108945419D01*
X206049523Y-109850180D02*
X205478095Y-109850180D01*
X205763809Y-109850180D02*
X205763809Y-108850180D01*
X205668571Y-108993038D01*
X205573333Y-109088276D01*
X205478095Y-109135895D01*
X207001904Y-109850180D02*
X206430476Y-109850180D01*
X206716190Y-109850180D02*
X206716190Y-108850180D01*
X206620952Y-108993038D01*
X206525714Y-109088276D01*
X206430476Y-109135895D01*
X208678542Y-114377742D02*
X208630923Y-114425361D01*
X208488066Y-114472980D01*
X208392828Y-114472980D01*
X208249971Y-114425361D01*
X208154733Y-114330123D01*
X208107114Y-114234885D01*
X208059495Y-114044409D01*
X208059495Y-113901552D01*
X208107114Y-113711076D01*
X208154733Y-113615838D01*
X208249971Y-113520600D01*
X208392828Y-113472980D01*
X208488066Y-113472980D01*
X208630923Y-113520600D01*
X208678542Y-113568219D01*
X209630923Y-114472980D02*
X209059495Y-114472980D01*
X209345209Y-114472980D02*
X209345209Y-113472980D01*
X209249971Y-113615838D01*
X209154733Y-113711076D01*
X209059495Y-113758695D01*
X210011876Y-113568219D02*
X210059495Y-113520600D01*
X210154733Y-113472980D01*
X210392828Y-113472980D01*
X210488066Y-113520600D01*
X210535685Y-113568219D01*
X210583304Y-113663457D01*
X210583304Y-113758695D01*
X210535685Y-113901552D01*
X209964257Y-114472980D01*
X210583304Y-114472980D01*
X208678542Y-116435142D02*
X208630923Y-116482761D01*
X208488066Y-116530380D01*
X208392828Y-116530380D01*
X208249971Y-116482761D01*
X208154733Y-116387523D01*
X208107114Y-116292285D01*
X208059495Y-116101809D01*
X208059495Y-115958952D01*
X208107114Y-115768476D01*
X208154733Y-115673238D01*
X208249971Y-115578000D01*
X208392828Y-115530380D01*
X208488066Y-115530380D01*
X208630923Y-115578000D01*
X208678542Y-115625619D01*
X209630923Y-116530380D02*
X209059495Y-116530380D01*
X209345209Y-116530380D02*
X209345209Y-115530380D01*
X209249971Y-115673238D01*
X209154733Y-115768476D01*
X209059495Y-115816095D01*
X209964257Y-115530380D02*
X210583304Y-115530380D01*
X210249971Y-115911333D01*
X210392828Y-115911333D01*
X210488066Y-115958952D01*
X210535685Y-116006571D01*
X210583304Y-116101809D01*
X210583304Y-116339904D01*
X210535685Y-116435142D01*
X210488066Y-116482761D01*
X210392828Y-116530380D01*
X210107114Y-116530380D01*
X210011876Y-116482761D01*
X209964257Y-116435142D01*
X208678542Y-121388142D02*
X208630923Y-121435761D01*
X208488066Y-121483380D01*
X208392828Y-121483380D01*
X208249971Y-121435761D01*
X208154733Y-121340523D01*
X208107114Y-121245285D01*
X208059495Y-121054809D01*
X208059495Y-120911952D01*
X208107114Y-120721476D01*
X208154733Y-120626238D01*
X208249971Y-120531000D01*
X208392828Y-120483380D01*
X208488066Y-120483380D01*
X208630923Y-120531000D01*
X208678542Y-120578619D01*
X209630923Y-121483380D02*
X209059495Y-121483380D01*
X209345209Y-121483380D02*
X209345209Y-120483380D01*
X209249971Y-120626238D01*
X209154733Y-120721476D01*
X209059495Y-120769095D01*
X210488066Y-120816714D02*
X210488066Y-121483380D01*
X210249971Y-120435761D02*
X210011876Y-121150047D01*
X210630923Y-121150047D01*
X193355933Y-116022380D02*
X193022600Y-115546190D01*
X192784504Y-116022380D02*
X192784504Y-115022380D01*
X193165457Y-115022380D01*
X193260695Y-115070000D01*
X193308314Y-115117619D01*
X193355933Y-115212857D01*
X193355933Y-115355714D01*
X193308314Y-115450952D01*
X193260695Y-115498571D01*
X193165457Y-115546190D01*
X192784504Y-115546190D01*
X194308314Y-116022380D02*
X193736885Y-116022380D01*
X194022600Y-116022380D02*
X194022600Y-115022380D01*
X193927361Y-115165238D01*
X193832123Y-115260476D01*
X193736885Y-115308095D01*
M02*
